<svg xmlns="http://www.w3.org/2000/svg" xmlns:xlink="http://www.w3.org/1999/xlink" width="500" zoomAndPan="magnify" viewBox="0 0 375 374.999991" height="500" preserveAspectRatio="xMidYMid meet" version="1.0"><defs><g/></defs><rect x="-37.5" width="450" fill="#ffffff" y="-37.499999" height="449.999989" fill-opacity="1"/><rect x="-37.5" width="450" fill="#000000" y="-37.499999" height="449.999989" fill-opacity="1"/><g fill="#ffffff" fill-opacity="1"><g transform="translate(51.444782, 241.612168)"><g><path d="M 76.546875 -24.625 C 60.296875 -23.953125 25.796875 -25.625 25.796875 -67 C 25.796875 -98.828125 47.40625 -111.046875 76.546875 -109.546875 L 76.546875 -79.890625 L 102.171875 -79.890625 L 102.171875 -132.5 C 102.171875 -133.15625 101.5 -134 100.328125 -134 L 78.5625 -134 C 45.734375 -134 0 -126.46875 0 -67 C 0 -9.71875 45.21875 0 78.5625 0 L 100.328125 0 C 101.5 0 102.171875 -0.84375 102.171875 -1.5 L 102.171875 -24.625 Z M 76.546875 -24.625 "/></g></g></g><g fill="#ffffff" fill-opacity="1"><g transform="translate(155.902508, 300.559308)"><g><path d="M 61.46875 -74.375 C 51.921875 -78.890625 42.546875 -78.890625 41.703125 -78.890625 C 33.171875 -78.890625 24.953125 -83.921875 24.953125 -93.625 C 24.953125 -104.359375 32.5 -109.875 41.703125 -109.875 C 50.421875 -109.875 57.78125 -105.359375 58.125 -95.8125 C 58.125 -95.3125 58.953125 -94.46875 59.96875 -94.46875 L 80.90625 -94.46875 C 82.078125 -94.46875 82.90625 -95.3125 82.75 -95.8125 C 82.40625 -118.59375 64.65625 -134 41.703125 -134 C 20.265625 -134 0 -118.75 0 -93.625 C 0 -78.0625 7.875 -66.15625 21.78125 -59.796875 C 31.484375 -55.28125 40.53125 -55.28125 41.703125 -55.28125 C 49.25 -54.9375 58.453125 -48.90625 58.453125 -39.03125 C 58.453125 -30.15625 50.578125 -24.125 41.703125 -24.125 C 41.703125 -24.125 41.703125 -24.125 41.546875 -24.125 L 41.546875 0 C 41.703125 0 41.703125 0 41.703125 0 C 63.140625 0 83.25 -13.90625 83.25 -39.03125 C 83.25 -54.765625 75.546875 -67.84375 61.46875 -74.375 Z M 61.46875 -74.375 "/></g></g></g><g fill="#ffffff" fill-opacity="1"><g transform="translate(51.087109, 299.355001)"><g><path d="M 13.203125 -5.578125 C 14.304688 -5.578125 15.503906 -5.691406 16.796875 -5.921875 C 18.085938 -6.148438 19.242188 -6.457031 20.265625 -6.84375 L 20.265625 -1.203125 C 18.742188 -0.585938 17.378906 -0.164062 16.171875 0.0625 C 14.960938 0.289062 13.695312 0.40625 12.375 0.40625 C 9.988281 0.40625 8.078125 0.132812 6.640625 -0.40625 C 5.210938 -0.957031 4.070312 -1.835938 3.21875 -3.046875 C 2.5 -4.097656 1.96875 -5.429688 1.625 -7.046875 C 1.28125 -8.671875 1.109375 -10.640625 1.109375 -12.953125 C 1.109375 -17.578125 2.101562 -20.953125 4.09375 -23.078125 C 6.09375 -25.210938 9.269531 -26.28125 13.625 -26.28125 C 14.882812 -26.28125 16.007812 -26.253906 17 -26.203125 C 17.988281 -26.148438 18.882812 -26.054688 19.6875 -25.921875 L 19.6875 -20.34375 C 18.78125 -20.394531 17.835938 -20.4375 16.859375 -20.46875 C 15.878906 -20.5 14.800781 -20.515625 13.625 -20.515625 C 12.101562 -20.515625 10.976562 -20.367188 10.25 -20.078125 C 9.519531 -19.785156 8.976562 -19.28125 8.625 -18.5625 C 8.289062 -18.019531 8.054688 -17.289062 7.921875 -16.375 C 7.785156 -15.46875 7.71875 -14.328125 7.71875 -12.953125 C 7.71875 -11.660156 7.78125 -10.582031 7.90625 -9.71875 C 8.03125 -8.851562 8.226562 -8.128906 8.5 -7.546875 C 8.851562 -6.835938 9.375 -6.332031 10.0625 -6.03125 C 10.75 -5.726562 11.796875 -5.578125 13.203125 -5.578125 Z M 13.203125 -5.578125 "/></g></g></g><g fill="#ffffff" fill-opacity="1"><g transform="translate(74.156168, 299.355001)"><g><path d="M 25.46875 -12.953125 C 25.46875 -8.253906 24.507812 -4.851562 22.59375 -2.75 C 20.675781 -0.644531 17.570312 0.40625 13.28125 0.40625 C 8.800781 0.40625 5.648438 -0.582031 3.828125 -2.5625 C 2.015625 -4.539062 1.109375 -8.003906 1.109375 -12.953125 C 1.109375 -17.660156 2.0625 -21.054688 3.96875 -23.140625 C 5.882812 -25.234375 8.988281 -26.28125 13.28125 -26.28125 C 17.769531 -26.28125 20.921875 -25.289062 22.734375 -23.3125 C 24.554688 -21.332031 25.46875 -17.878906 25.46875 -12.953125 Z M 8.375 -7.421875 C 8.726562 -6.734375 9.253906 -6.253906 9.953125 -5.984375 C 10.660156 -5.710938 11.769531 -5.578125 13.28125 -5.578125 C 14.800781 -5.578125 15.910156 -5.710938 16.609375 -5.984375 C 17.304688 -6.253906 17.835938 -6.734375 18.203125 -7.421875 C 18.472656 -7.972656 18.671875 -8.6875 18.796875 -9.5625 C 18.921875 -10.445312 18.984375 -11.578125 18.984375 -12.953125 C 18.984375 -14.359375 18.921875 -15.507812 18.796875 -16.40625 C 18.671875 -17.300781 18.472656 -18.019531 18.203125 -18.5625 C 17.867188 -19.28125 17.347656 -19.785156 16.640625 -20.078125 C 15.941406 -20.367188 14.820312 -20.515625 13.28125 -20.515625 C 11.75 -20.515625 10.628906 -20.367188 9.921875 -20.078125 C 9.222656 -19.785156 8.707031 -19.28125 8.375 -18.5625 C 8.101562 -18.019531 7.90625 -17.300781 7.78125 -16.40625 C 7.65625 -15.507812 7.59375 -14.359375 7.59375 -12.953125 C 7.59375 -11.578125 7.65625 -10.445312 7.78125 -9.5625 C 7.90625 -8.6875 8.101562 -7.972656 8.375 -7.421875 Z M 8.375 -7.421875 "/></g></g></g><g fill="#ffffff" fill-opacity="1"><g transform="translate(102.837631, 299.355001)"><g><path d="M 11.015625 0 L 1.984375 0 L 1.984375 -25.875 L 11.015625 -25.875 C 13.660156 -25.875 15.757812 -25.648438 17.3125 -25.203125 C 18.863281 -24.765625 20.109375 -24.066406 21.046875 -23.109375 C 21.984375 -22.148438 22.664062 -20.847656 23.09375 -19.203125 C 23.519531 -17.566406 23.734375 -15.484375 23.734375 -12.953125 C 23.734375 -8.472656 22.726562 -5.191406 20.71875 -3.109375 C 18.707031 -1.035156 15.472656 0 11.015625 0 Z M 16.09375 -18.453125 C 15.707031 -19.023438 15.140625 -19.441406 14.390625 -19.703125 C 13.648438 -19.960938 12.523438 -20.09375 11.015625 -20.09375 L 8.375 -20.09375 L 8.375 -5.984375 L 11.015625 -5.984375 C 12.503906 -5.984375 13.617188 -6.101562 14.359375 -6.34375 C 15.097656 -6.59375 15.675781 -6.992188 16.09375 -7.546875 C 16.445312 -8.066406 16.707031 -8.757812 16.875 -9.625 C 17.039062 -10.5 17.125 -11.609375 17.125 -12.953125 C 17.125 -14.328125 17.039062 -15.445312 16.875 -16.3125 C 16.707031 -17.1875 16.445312 -17.898438 16.09375 -18.453125 Z M 16.09375 -18.453125 "/></g></g></g><g fill="#ffffff" fill-opacity="1"><g transform="translate(129.785846, 299.355001)"><g><path d="M 19.8125 -5.984375 L 19.8125 0 L 1.984375 0 L 1.984375 -25.875 L 19.4375 -25.875 L 19.4375 -20.09375 L 8.375 -20.09375 L 8.375 -15.8125 L 17.90625 -15.8125 L 17.90625 -10.4375 L 8.375 -10.4375 L 8.375 -5.984375 Z M 19.8125 -5.984375 "/></g></g></g><g fill="#ffffff" fill-opacity="1"><g transform="translate(182.900406, 147.11752)"><g><path d="M 11.796875 -9.65625 L 6.5625 -10.890625 C 4.46875 -11.390625 3.039062 -12.144531 2.28125 -13.15625 C 1.53125 -14.175781 1.15625 -15.632812 1.15625 -17.53125 C 1.15625 -20.53125 1.945312 -22.738281 3.53125 -24.15625 C 5.113281 -25.570312 7.566406 -26.28125 10.890625 -26.28125 C 12.265625 -26.28125 13.488281 -26.222656 14.5625 -26.109375 C 15.632812 -26.003906 16.625 -25.816406 17.53125 -25.546875 L 17.53125 -19.8125 C 15.445312 -20.164062 14.007812 -20.367188 13.21875 -20.421875 C 12.4375 -20.484375 11.617188 -20.515625 10.765625 -20.515625 C 9.609375 -20.515625 8.769531 -20.320312 8.25 -19.9375 C 7.726562 -19.550781 7.46875 -18.898438 7.46875 -17.984375 C 7.46875 -17.546875 7.550781 -17.207031 7.71875 -16.96875 C 7.882812 -16.738281 8.203125 -16.570312 8.671875 -16.46875 L 13.625 -15.3125 C 15.050781 -14.976562 16.078125 -14.648438 16.703125 -14.328125 C 17.335938 -14.015625 17.847656 -13.613281 18.234375 -13.125 C 18.679688 -12.601562 19.003906 -11.925781 19.203125 -11.09375 C 19.410156 -10.269531 19.515625 -9.269531 19.515625 -8.09375 C 19.515625 -5.09375 18.71875 -2.925781 17.125 -1.59375 C 15.53125 -0.257812 13.054688 0.40625 9.703125 0.40625 C 7.992188 0.40625 6.367188 0.300781 4.828125 0.09375 C 3.285156 -0.101562 2.085938 -0.351562 1.234375 -0.65625 L 1.234375 -6.71875 C 2.335938 -6.363281 3.644531 -6.082031 5.15625 -5.875 C 6.664062 -5.675781 8.179688 -5.578125 9.703125 -5.578125 C 10.910156 -5.578125 11.75 -5.726562 12.21875 -6.03125 C 12.6875 -6.332031 12.921875 -6.9375 12.921875 -7.84375 C 12.921875 -8.414062 12.84375 -8.832031 12.6875 -9.09375 C 12.539062 -9.351562 12.242188 -9.539062 11.796875 -9.65625 Z M 11.796875 -9.65625 "/></g></g></g><g fill="#ffffff" fill-opacity="1"><g transform="translate(205.185387, 147.11752)"><g><path d="M 13.28125 0.40625 C 8.800781 0.40625 5.648438 -0.582031 3.828125 -2.5625 C 2.015625 -4.539062 1.109375 -8.003906 1.109375 -12.953125 C 1.109375 -17.660156 2.0625 -21.054688 3.96875 -23.140625 C 5.882812 -25.234375 8.988281 -26.28125 13.28125 -26.28125 C 17.769531 -26.28125 20.921875 -25.289062 22.734375 -23.3125 C 24.554688 -21.332031 25.46875 -17.878906 25.46875 -12.953125 C 25.46875 -9.816406 25.0625 -7.285156 24.25 -5.359375 C 23.4375 -3.429688 22.160156 -2.003906 20.421875 -1.078125 L 25.46875 5.28125 L 18.109375 5.28125 L 14.359375 0.375 C 14.253906 0.394531 14.125 0.40625 13.96875 0.40625 C 13.8125 0.40625 13.582031 0.40625 13.28125 0.40625 Z M 8.375 -7.421875 C 8.726562 -6.734375 9.253906 -6.253906 9.953125 -5.984375 C 10.660156 -5.710938 11.769531 -5.578125 13.28125 -5.578125 C 14.800781 -5.578125 15.910156 -5.710938 16.609375 -5.984375 C 17.304688 -6.253906 17.835938 -6.734375 18.203125 -7.421875 C 18.472656 -7.972656 18.671875 -8.6875 18.796875 -9.5625 C 18.921875 -10.445312 18.984375 -11.578125 18.984375 -12.953125 C 18.984375 -14.359375 18.921875 -15.507812 18.796875 -16.40625 C 18.671875 -17.300781 18.472656 -18.019531 18.203125 -18.5625 C 17.867188 -19.28125 17.347656 -19.785156 16.640625 -20.078125 C 15.941406 -20.367188 14.820312 -20.515625 13.28125 -20.515625 C 11.75 -20.515625 10.628906 -20.367188 9.921875 -20.078125 C 9.222656 -19.785156 8.707031 -19.28125 8.375 -18.5625 C 8.101562 -18.019531 7.90625 -17.300781 7.78125 -16.40625 C 7.65625 -15.507812 7.59375 -14.359375 7.59375 -12.953125 C 7.59375 -11.578125 7.65625 -10.445312 7.78125 -9.5625 C 7.90625 -8.6875 8.101562 -7.972656 8.375 -7.421875 Z M 8.375 -7.421875 "/></g></g></g><g fill="#ffffff" fill-opacity="1"><g transform="translate(233.86685, 147.11752)"><g><path d="M 17.578125 -10.890625 L 17.578125 -25.875 L 23.96875 -25.875 L 23.96875 -10.890625 C 23.96875 -7.117188 23.046875 -4.289062 21.203125 -2.40625 C 19.367188 -0.53125 16.609375 0.40625 12.921875 0.40625 C 9.035156 0.40625 6.207031 -0.484375 4.4375 -2.265625 C 2.664062 -4.054688 1.78125 -6.929688 1.78125 -10.890625 L 1.78125 -25.875 L 8.171875 -25.875 L 8.171875 -10.890625 C 8.171875 -8.804688 8.492188 -7.398438 9.140625 -6.671875 C 9.785156 -5.941406 11.046875 -5.578125 12.921875 -5.578125 C 14.765625 -5.578125 16 -5.941406 16.625 -6.671875 C 17.257812 -7.398438 17.578125 -8.804688 17.578125 -10.890625 Z M 17.578125 -10.890625 "/></g></g></g><g fill="#ffffff" fill-opacity="1"><g transform="translate(261.722959, 147.11752)"><g><path d="M 6.609375 0 L -0.125 0 L 9.453125 -25.875 L 16.09375 -25.875 L 25.421875 0 L 18.734375 0 L 17.375 -4.328125 L 7.96875 -4.328125 Z M 12.625 -19.515625 C 12.40625 -18.742188 12.164062 -17.925781 11.90625 -17.0625 C 11.644531 -16.195312 11.210938 -14.785156 10.609375 -12.828125 L 9.53125 -9.40625 L 15.765625 -9.40625 L 14.6875 -12.828125 C 14.332031 -13.878906 13.972656 -14.988281 13.609375 -16.15625 C 13.253906 -17.320312 12.925781 -18.441406 12.625 -19.515625 Z M 12.625 -19.515625 "/></g></g></g><g fill="#ffffff" fill-opacity="1"><g transform="translate(289.207665, 147.11752)"><g><path d="M 8.375 -8.328125 L 8.375 0 L 1.984375 0 L 1.984375 -25.875 L 11.4375 -25.875 C 15.425781 -25.875 18.257812 -25.195312 19.9375 -23.84375 C 21.613281 -22.5 22.453125 -20.257812 22.453125 -17.125 C 22.453125 -15.007812 22.003906 -13.28125 21.109375 -11.9375 C 20.210938 -10.601562 18.859375 -9.632812 17.046875 -9.03125 L 23.359375 0 L 15.6875 0 L 10.3125 -8.328125 Z M 15.96875 -17.125 C 15.96875 -18.226562 15.632812 -19 14.96875 -19.4375 C 14.3125 -19.875 13.132812 -20.09375 11.4375 -20.09375 L 8.375 -20.09375 L 8.375 -13.5 L 11.4375 -13.5 C 13.132812 -13.5 14.3125 -13.765625 14.96875 -14.296875 C 15.632812 -14.835938 15.96875 -15.78125 15.96875 -17.125 Z M 15.96875 -17.125 "/></g></g></g><g fill="#ffffff" fill-opacity="1"><g transform="translate(315.124201, 147.11752)"><g><path d="M 19.8125 -5.984375 L 19.8125 0 L 1.984375 0 L 1.984375 -25.875 L 19.4375 -25.875 L 19.4375 -20.09375 L 8.375 -20.09375 L 8.375 -15.8125 L 17.90625 -15.8125 L 17.90625 -10.4375 L 8.375 -10.4375 L 8.375 -5.984375 Z M 19.8125 -5.984375 "/></g></g></g></svg>